<svg width="25" height="25" viewBox="0 0 25 25" fill="none" xmlns="http://www.w3.org/2000/svg">
<path fill-rule="evenodd" clip-rule="evenodd" d="M24.4574 12.0441C24.4548 18.5997 19.1218 23.9339 12.5648 23.9366H12.5599C10.5695 23.9359 8.61377 23.4365 6.87672 22.489L0.572266 24.1428L2.25944 17.9802C1.21871 16.1766 0.671081 14.1307 0.671974 12.0347C0.674583 5.47757 6.00961 0.142822 12.5647 0.142822C15.7461 0.144195 18.7321 1.38271 20.9774 3.63066C23.2228 5.87851 24.4586 8.86643 24.4574 12.0441ZM3.42767 21.3174L7.16882 20.336L7.52977 20.5502C9.04742 21.4508 10.7871 21.9273 12.5608 21.928H12.5648C18.013 21.928 22.4472 17.4937 22.4494 12.0433C22.4504 9.40208 21.4232 6.91864 19.557 5.05023C17.6908 3.18182 15.2089 2.15235 12.5687 2.15144C7.11637 2.15144 2.68208 6.58533 2.67992 12.0353C2.67915 13.903 3.20174 15.722 4.19121 17.2958L4.42624 17.6698L3.42767 21.3174Z" fill="#BB8C5F"/>
<path d="M18.3215 15.6152C18.2472 15.4913 18.0492 15.4169 17.752 15.2681C17.4549 15.1194 15.9939 14.4006 15.7215 14.3014C15.4491 14.2022 15.2509 14.1527 15.0529 14.4501C14.8548 14.7475 14.2853 15.4169 14.112 15.6152C13.9386 15.8135 13.7653 15.8384 13.4682 15.6896C13.1711 15.5409 12.2136 15.2271 11.0785 14.2147C10.1952 13.4267 9.59879 12.4537 9.42545 12.1562C9.25211 11.8587 9.40697 11.6979 9.55573 11.5497C9.68942 11.4166 9.85291 11.2026 10.0015 11.0291C10.15 10.8557 10.1996 10.7316 10.2986 10.5334C10.3977 10.335 10.3482 10.1616 10.2738 10.0128C10.1996 9.86406 9.60528 8.40139 9.35766 7.80639C9.11644 7.22695 8.87147 7.30545 8.68908 7.29629C8.51594 7.2876 8.31763 7.28577 8.11955 7.28577C7.92146 7.28577 7.59951 7.36014 7.32713 7.65764C7.05476 7.95514 6.28711 8.67406 6.28711 10.1366C6.28711 11.5993 7.35188 13.0123 7.50047 13.2106C7.64904 13.409 9.59583 16.4104 12.5768 17.6975C13.2857 18.0037 13.8392 18.1866 14.2708 18.3235C14.9826 18.5497 15.6305 18.5178 16.1424 18.4412C16.7134 18.356 17.9005 17.7225 18.1483 17.0283C18.3958 16.3341 18.3958 15.7391 18.3215 15.6152Z" fill="#BB8C5F"/>
</svg>
