<svg width="23" height="23" viewBox="0 0 23 23" fill="none" xmlns="http://www.w3.org/2000/svg">
<path d="M22.7746 18.4064C22.7307 18.2777 22.6282 18.0793 22.555 17.9654C22.0938 17.2672 19.6158 15.3231 18.3786 14.6873C17.6722 14.3235 17.1487 14.2022 16.7607 14.3161C16.3435 14.4337 16.1238 14.6285 15.4247 15.4995C15.1429 15.8486 14.8537 16.1757 14.7769 16.2271C14.5865 16.3594 14.2132 16.466 13.9496 16.466C13.3384 16.4623 12.2293 16.0654 11.3764 15.5435C10.7139 15.1393 9.86478 14.4154 9.21321 13.6987C8.44452 12.8571 7.92116 12.1148 7.5075 11.2769C6.97313 10.2001 6.8377 9.54228 7.06094 9.06083C7.11586 8.93957 7.18908 8.81098 7.22198 8.7705C7.25494 8.73381 7.59903 8.4508 7.97966 8.14209C8.72639 7.54677 8.84717 7.4108 8.98625 7.00286C9.16194 6.48466 9.11439 5.95547 8.84352 5.42262C8.63486 5.01835 8.08949 4.13636 7.69419 3.56674C7.17077 2.81707 5.8677 1.21477 5.60778 0.997885C5.13927 0.615723 4.53904 0.549532 3.87646 0.806835C3.17741 1.07879 1.86698 2.13718 1.30694 2.87586C0.801821 3.5447 0.607888 4.01875 0.578576 4.64351C0.552972 5.15798 0.596879 5.37114 0.867747 6.02899C2.98706 11.1887 6.14951 15.3083 10.4943 18.5791C12.7637 20.288 15.1173 21.5889 17.5587 22.4783C18.9825 22.9965 19.6011 23.0222 20.3295 22.5959C20.6369 22.4121 21.3983 21.6294 21.8229 21.0598C22.5257 20.1116 22.7856 19.6743 22.8588 19.3251C22.91 19.0863 22.8698 18.671 22.7746 18.4064Z" fill="#BB8C5F"/>
</svg>
