<svg viewBox="0 0 40 40" fill="none" xmlns="http://www.w3.org/2000/svg">
<rect x="0.5" y="0.5" width="39" height="39" fill="#050402"/>
<path fill-rule="evenodd" clip-rule="evenodd" d="M32.4574 19.0441C32.4548 25.5997 27.1218 30.9339 20.5648 30.9366H20.5599C18.5695 30.9359 16.6138 30.4365 14.8767 29.489L8.57227 31.1428L10.2594 24.9802C9.21871 23.1766 8.67108 21.1307 8.67197 19.0347C8.67458 12.4776 14.0096 7.14282 20.5647 7.14282C23.7461 7.1442 26.7321 8.38271 28.9774 10.6307C31.2228 12.8785 32.4586 15.8664 32.4574 19.0441ZM11.4277 28.3174L15.1688 27.336L15.5298 27.5502C17.0474 28.4508 18.7871 28.9273 20.5608 28.928H20.5648C26.013 28.928 30.4472 24.4937 30.4494 19.0433C30.4504 16.4021 29.4232 13.9186 27.557 12.0502C25.6908 10.1818 23.2089 9.15235 20.5687 9.15144C15.1164 9.15144 10.6821 13.5853 10.6799 19.0353C10.6791 20.903 11.2017 22.722 12.1912 24.2958L12.4262 24.6698L11.4277 28.3174Z" fill="#BB8C5F"/>
<path d="M26.3215 22.6152C26.2472 22.4913 26.0492 22.4169 25.752 22.2681C25.4549 22.1194 23.9939 21.4006 23.7215 21.3014C23.4491 21.2022 23.2509 21.1527 23.0529 21.4501C22.8548 21.7475 22.2853 22.4169 22.112 22.6152C21.9386 22.8135 21.7653 22.8384 21.4682 22.6896C21.1711 22.5409 20.2136 22.2271 19.0785 21.2147C18.1952 20.4267 17.5988 19.4537 17.4254 19.1562C17.2521 18.8587 17.407 18.6979 17.5557 18.5497C17.6894 18.4166 17.8529 18.2026 18.0015 18.0291C18.15 17.8557 18.1996 17.7316 18.2986 17.5334C18.3977 17.335 18.3482 17.1616 18.2738 17.0128C18.1996 16.8641 17.6053 15.4014 17.3577 14.8064C17.1164 14.227 16.8715 14.3054 16.6891 14.2963C16.5159 14.2876 16.3176 14.2858 16.1195 14.2858C15.9215 14.2858 15.5995 14.3601 15.3271 14.6576C15.0548 14.9551 14.2871 15.6741 14.2871 17.1366C14.2871 18.5993 15.3519 20.0123 15.5005 20.2106C15.649 20.409 17.5958 23.4104 20.5768 24.6975C21.2857 25.0037 21.8392 25.1866 22.2708 25.3235C22.9826 25.5497 23.6305 25.5178 24.1424 25.4412C24.7134 25.356 25.9005 24.7224 26.1483 24.0283C26.3958 23.3341 26.3958 22.7391 26.3215 22.6152Z" fill="#BB8C5F"/>
<rect x="0.5" y="0.5" width="39" height="39" stroke="#BB8C5F"/>
</svg>
